<?xml version="1.0" encoding="UTF-8" standalone="no"?>
<!-- Generator: Adobe Illustrator 16.0.0, SVG Export Plug-In . SVG Version: 6.00 Build 0)  -->

<svg
   xmlns:dc="http://purl.org/dc/elements/1.1/"
   xmlns:cc="http://creativecommons.org/ns#"
   xmlns:rdf="http://www.w3.org/1999/02/22-rdf-syntax-ns#"
   xmlns:svg="http://www.w3.org/2000/svg"
   xmlns="http://www.w3.org/2000/svg"
   xmlns:sodipodi="http://sodipodi.sourceforge.net/DTD/sodipodi-0.dtd"
   xmlns:inkscape="http://www.inkscape.org/namespaces/inkscape"
   version="1.1"
   id="Capa_1"
   x="0px"
   y="0px"
   width="970.477px"
   height="970.477px"
   viewBox="0 0 970.477 970.477"
   style="enable-background:new 0 0 970.477 970.477;"
   xml:space="preserve"
   sodipodi:docname="arrow.svg"
   inkscape:version="0.92.4 (5da689c313, 2019-01-14)"><metadata
   id="metadata1005"><rdf:RDF><cc:Work
       rdf:about=""><dc:format>image/svg+xml</dc:format><dc:type
         rdf:resource="http://purl.org/dc/dcmitype/StillImage" /><dc:title /></cc:Work></rdf:RDF></metadata><defs
   id="defs1003" /><sodipodi:namedview
   pagecolor="#ffffff"
   bordercolor="#666666"
   borderopacity="1"
   objecttolerance="10"
   gridtolerance="10"
   guidetolerance="10"
   inkscape:pageopacity="0"
   inkscape:pageshadow="2"
   inkscape:window-width="1366"
   inkscape:window-height="741"
   id="namedview1001"
   showgrid="false"
   inkscape:pagecheckerboard="true"
   inkscape:zoom="0.29367002"
   inkscape:cx="113.99978"
   inkscape:cy="337.15667"
   inkscape:window-x="-9"
   inkscape:window-y="-9"
   inkscape:window-maximized="1"
   inkscape:current-layer="Capa_1" />
<g
   id="g968"
   style="fill:#000000"
   transform="rotate(180,485.23871,485.23829)">
	<path
   d="m 842.849,970.477 c 26.601,0 53.5,-8.8 75.7,-27 51.4,-41.9 59.101,-117.4 17.2,-168.8 l -234.6,-288 237,-290.9 c 41.899,-51.399 34.1,-127 -17.2,-168.8 -51.4,-41.899 -127,-34.1 -168.8,17.2 l -298.8,366.7 c -36,44.1 -36,107.399 0,151.6 l 296.4,363.9 c 23.701,29 58.3,44.1 93.1,44.1 z"
   id="path964"
   style="fill:#000000"
   inkscape:connector-curvature="0" />
	<path
   d="m 328.85,926.276 c 23.7,29.101 58.301,44.2 93.101,44.2 26.6,0 53.5,-8.8 75.7,-27 51.399,-41.9 59.1,-117.4 17.199,-168.8 l -234.599,-288 237,-290.9 c 41.9,-51.399 34.1,-127 -17.2,-168.8 -51.399,-41.899 -127,-34.1 -168.799,17.2 l -298.9,366.7 c -36,44.1 -36,107.5 0,151.6 z"
   id="path966"
   style="fill:#000000"
   inkscape:connector-curvature="0" />
</g>
<g
   id="g970">
</g>
<g
   id="g972">
</g>
<g
   id="g974">
</g>
<g
   id="g976">
</g>
<g
   id="g978">
</g>
<g
   id="g980">
</g>
<g
   id="g982">
</g>
<g
   id="g984">
</g>
<g
   id="g986">
</g>
<g
   id="g988">
</g>
<g
   id="g990">
</g>
<g
   id="g992">
</g>
<g
   id="g994">
</g>
<g
   id="g996">
</g>
<g
   id="g998">
</g>
</svg>