<?xml version="1.0" encoding="UTF-8" standalone="no"?>
<!-- Created with Inkscape (http://www.inkscape.org/) -->

<svg
   xmlns:dc="http://purl.org/dc/elements/1.1/"
   xmlns:cc="http://creativecommons.org/ns#"
   xmlns:rdf="http://www.w3.org/1999/02/22-rdf-syntax-ns#"
   xmlns:svg="http://www.w3.org/2000/svg"
   xmlns="http://www.w3.org/2000/svg"
   xmlns:sodipodi="http://sodipodi.sourceforge.net/DTD/sodipodi-0.dtd"
   xmlns:inkscape="http://www.inkscape.org/namespaces/inkscape"
   width="279.98703mm"
   height="105.47972mm"
   viewBox="0 0 279.98703 105.47972"
   version="1.1"
   id="svg8"
   inkscape:version="0.92.4 (5da689c313, 2019-01-14)"
   sodipodi:docname="hello.svg">
  <defs
     id="defs2" />
  <sodipodi:namedview
     id="base"
     pagecolor="#ffffff"
     bordercolor="#666666"
     borderopacity="1.0"
     inkscape:pageopacity="0.0"
     inkscape:pageshadow="2"
     inkscape:zoom="0.175"
     inkscape:cx="-499.82673"
     inkscape:cy="180.89176"
     inkscape:document-units="mm"
     inkscape:current-layer="flowRoot10"
     showgrid="false"
     inkscape:window-width="1366"
     inkscape:window-height="768"
     inkscape:window-x="0"
     inkscape:window-y="0"
     inkscape:window-maximized="1" />
  <metadata
     id="metadata5">
    <rdf:RDF>
      <cc:Work
         rdf:about="">
        <dc:format>image/svg+xml</dc:format>
        <dc:type
           rdf:resource="http://purl.org/dc/dcmitype/StillImage" />
        <dc:title></dc:title>
      </cc:Work>
    </rdf:RDF>
  </metadata>
  <g
     inkscape:label="Layer 1"
     inkscape:groupmode="layer"
     id="layer1"
     transform="translate(-110.00647,-95.760143)">
    <g
       aria-label="HELLO"
       transform="matrix(3.2012813,0,0,3.2012813,-224.52118,-1235.9489)"
       style="font-style:normal;font-variant:normal;font-weight:normal;font-stretch:normal;font-size:40px;line-height:1.25;font-family:Impact;-inkscape-font-specification:Impact;font-variant-ligatures:normal;font-variant-caps:normal;font-variant-numeric:normal;font-feature-settings:normal;text-align:start;letter-spacing:0px;word-spacing:0px;writing-mode:lr-tb;text-anchor:start;fill:#000000;fill-opacity:1;stroke:none"
       id="flowRoot10">
      <g
         id="g34">
        <path
           id="path18"
           d="m 123.4043,416.65657 v 31.6211 h -8.22266 v -13.28125 h -2.46094 v 13.28125 h -8.22265 v -31.6211 h 8.22265 v 11.3086 h 2.46094 v -11.3086 z"
           inkscape:connector-curvature="0" />
        <path
           id="path20"
           d="m 126.68555,416.65657 h 13.71093 v 6.32813 h -5.48828 v 5.99609 h 5.13672 v 6.01563 h -5.13672 v 6.95312 h 6.03516 v 6.32813 h -14.25781 z"
           inkscape:connector-curvature="0" />
        <path
           id="path22"
           d="m 151.54883,416.65657 v 25.29297 h 5 v 6.32813 h -13.22266 v -31.6211 z"
           inkscape:connector-curvature="0" />
        <path
           id="path24"
           d="m 166.7832,416.65657 v 25.29297 h 5 v 6.32813 h -13.22265 v -31.6211 z"
           inkscape:connector-curvature="0" />
        <path
           id="path26"
           d="m 191.95898,435.1722 q 0,4.76562 -0.23437,6.75781 -0.21484,1.97266 -1.40625,3.61328 -1.17188,1.64063 -3.18359,2.51953 -2.01172,0.87891 -4.6875,0.87891 -2.53907,0 -4.57032,-0.82031 -2.01172,-0.83985 -3.24218,-2.5 -1.23047,-1.66016 -1.46485,-3.61329 -0.23437,-1.95312 -0.23437,-6.83593 v -5.41016 q 0,-4.76562 0.21484,-6.73828 0.23438,-1.99219 1.40625,-3.63281 1.19141,-1.64063 3.20313,-2.51953 2.01171,-0.87891 4.6875,-0.87891 2.53906,0 4.55078,0.83984 2.03125,0.82032 3.26172,2.48047 1.23046,1.66016 1.46484,3.61328 0.23437,1.95313 0.23437,6.83594 z m -8.22265,-10.39063 q 0,-2.20703 -0.25391,-2.8125 -0.23437,-0.625 -0.99609,-0.625 -0.64453,0 -0.9961,0.50781 -0.33203,0.48829 -0.33203,2.92969 v 14.76563 q 0,2.7539 0.21485,3.39843 0.23437,0.64454 1.05468,0.64454 0.83985,0 1.07422,-0.74219 0.23438,-0.74219 0.23438,-3.53516 z"
           inkscape:connector-curvature="0" />
      </g>
    </g>
  </g>
</svg>
