<?xml version="1.0" encoding="UTF-8" standalone="no"?>
<!-- Created with Inkscape (http://www.inkscape.org/) -->

<svg
   xmlns:dc="http://purl.org/dc/elements/1.1/"
   xmlns:cc="http://creativecommons.org/ns#"
   xmlns:rdf="http://www.w3.org/1999/02/22-rdf-syntax-ns#"
   xmlns:svg="http://www.w3.org/2000/svg"
   xmlns="http://www.w3.org/2000/svg"
   xmlns:sodipodi="http://sodipodi.sourceforge.net/DTD/sodipodi-0.dtd"
   xmlns:inkscape="http://www.inkscape.org/namespaces/inkscape"
   width="541.49652"
   height="80.910347"
   viewBox="0 0 143.27095 21.40753"
   version="1.1"
   id="svg42"
   inkscape:version="0.92.4 (5da689c313, 2019-01-14)"
   sodipodi:docname="rajesh-singh-mobile.svg">
  <defs
     id="defs36" />
  <sodipodi:namedview
     id="base"
     pagecolor="#ffffff"
     bordercolor="#666666"
     borderopacity="1.0"
     inkscape:pageopacity="0.0"
     inkscape:pageshadow="2"
     inkscape:zoom="0.7"
     inkscape:cx="295.54906"
     inkscape:cy="-87.745501"
     inkscape:document-units="mm"
     inkscape:current-layer="layer1"
     showgrid="false"
     units="px"
     inkscape:window-width="1366"
     inkscape:window-height="768"
     inkscape:window-x="0"
     inkscape:window-y="0"
     inkscape:window-maximized="1" />
  <metadata
     id="metadata39">
    <rdf:RDF>
      <cc:Work
         rdf:about="">
        <dc:format>image/svg+xml</dc:format>
        <dc:type
           rdf:resource="http://purl.org/dc/dcmitype/StillImage" />
        <dc:title></dc:title>
      </cc:Work>
    </rdf:RDF>
  </metadata>
  <g
     inkscape:label="Layer 1"
     inkscape:groupmode="layer"
     id="layer1"
     transform="translate(-14.12096,-213.50818)">
    <g
       id="g47"
       transform="translate(9.4494104)">
      <g
         transform="translate(0,10.799949)"
         id="text46"
         style="font-style:normal;font-variant:normal;font-weight:normal;font-stretch:condensed;font-size:25.98851204px;line-height:1.25;font-family:Impact;-inkscape-font-specification:'Impact, Condensed';font-variant-ligatures:normal;font-variant-caps:normal;font-variant-numeric:normal;text-align:start;letter-spacing:0px;word-spacing:0px;writing-mode:lr-tb;text-anchor:start;fill:#ff5851;fill-opacity:1;stroke:none;stroke-width:0.13922416"
         aria-label="RAJESH">
        <path
           id="path874"
           style="fill:#ff5851;fill-opacity:1;stroke-width:0.13922416"
           d="m 4.6715492,203.13968 h 3.7815316 q 3.7815312,0 5.1139502,0.29186 1.345109,0.29187 2.182629,1.49739 0.85021,1.19283 0.85021,3.8196 0,2.39835 -0.596416,3.22318 -0.596416,0.82484 -2.347595,0.9898 1.586213,0.39338 2.13187,1.05325 0.545657,0.65986 0.672554,1.21821 0.139587,0.54566 0.139587,3.03284 v 5.4185 h -4.961674 v -6.82706 q 0,-1.64966 -0.266483,-2.04304 -0.253795,-0.39338 -1.357799,-0.39338 v 9.26348 H 4.6715492 Z m 5.3423648,3.51505 v 4.56829 q 0.900969,0 1.256281,-0.2411 0.368001,-0.2538 0.368001,-1.61159 v -1.12939 q 0,-0.9771 -0.355311,-1.28166 -0.342622,-0.30455 -1.268971,-0.30455 z"
           inkscape:connector-curvature="0" />
        <path
           id="path876"
           style="fill:#ff5851;fill-opacity:1;stroke-width:0.13922416"
           d="m 27.906395,203.13968 3.058219,20.54463 h -5.469262 l -0.266484,-3.6927 h -1.916145 l -0.317243,3.6927 h -5.53271 l 2.715596,-20.54463 z m -2.829804,13.20998 q -0.40607,-3.48967 -0.812141,-8.61631 -0.812141,5.88803 -1.015176,8.61631 z"
           inkscape:connector-curvature="0" />
        <path
           id="path878"
           style="fill:#ff5851;fill-opacity:1;stroke-width:0.13922416"
           d="m 39.073335,203.13968 v 13.73026 q 0,3.0836 -0.06345,3.97188 -0.06345,0.87559 -0.583726,1.58621 -0.507588,0.71062 -1.395867,0.9898 -0.87559,0.26648 -2.652148,0.26648 h -2.677528 v -3.59119 q 0.482209,0.0381 0.697934,0.0381 0.571037,0 0.900969,-0.27917 0.329932,-0.27917 0.380691,-0.68524 0.05076,-0.40607 0.05076,-1.57353 v -14.45357 z"
           inkscape:connector-curvature="0" />
        <path
           id="path880"
           style="fill:#ff5851;fill-opacity:1;stroke-width:0.13922416"
           d="m 41.167136,203.13968 h 8.908171 v 4.11147 h -3.565806 v 3.89573 h 3.337392 v 3.90843 h -3.337392 v 4.51754 h 3.921118 v 4.11146 h -9.263483 z"
           inkscape:connector-curvature="0" />
        <path
           id="path882"
           style="fill:#ff5851;fill-opacity:1;stroke-width:0.13922416"
           d="m 63.297977,209.35764 h -4.961674 v -1.52277 q 0,-1.06593 -0.190345,-1.3578 -0.190346,-0.29186 -0.634485,-0.29186 -0.482209,0 -0.736003,0.39338 -0.241104,0.39338 -0.241104,1.19283 0,1.02787 0.279173,1.54815 0.266484,0.52027 1.510075,1.25628 3.565806,2.11918 4.492155,3.47698 0.926348,1.35779 0.926348,4.37794 0,2.19532 -0.520278,3.23588 -0.507588,1.04055 -1.979594,1.75118 -1.472005,0.69793 -3.426219,0.69793 -2.14456,0 -3.667325,-0.81214 -1.510074,-0.81214 -1.979593,-2.06842 -0.469519,-1.25628 -0.469519,-3.56581 v -1.34511 h 4.961674 v 2.49987 q 0,1.15477 0.203035,1.4847 0.215725,0.32993 0.748692,0.32993 0.532968,0 0.786762,-0.41876 0.266484,-0.41876 0.266484,-1.24359 0,-1.81463 -0.494899,-2.37297 -0.507588,-0.55835 -2.499871,-1.86539 -1.992284,-1.31973 -2.639459,-1.91614 -0.647174,-0.59642 -1.078624,-1.64967 -0.418761,-1.05324 -0.418761,-2.69021 0,-2.36029 0.596417,-3.4516 0.609105,-1.09132 1.954214,-1.70042 1.345108,-0.6218 3.248564,-0.6218 2.081111,0 3.540427,0.67256 1.472006,0.67255 1.941525,1.70042 0.482208,1.01517 0.482208,3.46429 z"
           inkscape:connector-curvature="0" />
        <path
           id="path884"
           style="fill:#ff5851;fill-opacity:1;stroke-width:0.13922416"
           d="m 77.713479,203.13968 v 20.54463 h -5.342365 v -8.629 h -1.598903 v 8.629 h -5.342365 v -20.54463 h 5.342365 v 7.34734 h 1.598903 v -7.34734 z"
           inkscape:connector-curvature="0" />
      </g>
      <g
         transform="translate(34.017857,-10.799951)"
         id="text46-1"
         style="font-style:normal;font-variant:normal;font-weight:normal;font-stretch:condensed;font-size:25.98851204px;line-height:1.25;font-family:Impact;-inkscape-font-specification:'Impact, Condensed';font-variant-ligatures:normal;font-variant-caps:normal;font-variant-numeric:normal;text-align:start;letter-spacing:0px;word-spacing:0px;writing-mode:lr-tb;text-anchor:start;fill:#cccccc;fill-opacity:1;stroke:none;stroke-width:0.13922416"
         aria-label="SINGH">
        <path
           id="path887"
           style="fill:#cccccc;fill-opacity:1;stroke-width:0.13922416"
           d="m 63.622653,230.95754 h -4.961674 v -1.52277 q 0,-1.06593 -0.190345,-1.3578 -0.190346,-0.29186 -0.634485,-0.29186 -0.482209,0 -0.736003,0.39338 -0.241104,0.39338 -0.241104,1.19283 0,1.02787 0.279173,1.54815 0.266484,0.52027 1.510075,1.25628 3.565806,2.11918 4.492155,3.47698 0.926348,1.35779 0.926348,4.37794 0,2.19532 -0.520278,3.23588 -0.507588,1.04055 -1.979594,1.75118 -1.472005,0.69793 -3.426219,0.69793 -2.14456,0 -3.667325,-0.81214 -1.510074,-0.81214 -1.979593,-2.06842 -0.469519,-1.25628 -0.469519,-3.56581 v -1.34511 h 4.961674 v 2.49987 q 0,1.15477 0.203035,1.4847 0.215725,0.32993 0.748692,0.32993 0.532968,0 0.786762,-0.41876 0.266484,-0.41876 0.266484,-1.24359 0,-1.81463 -0.494899,-2.37297 -0.507588,-0.55835 -2.499871,-1.86539 -1.992284,-1.31973 -2.639459,-1.91615 -0.647174,-0.59641 -1.078624,-1.64966 -0.41876,-1.05324 -0.41876,-2.69021 0,-2.36029 0.596416,-3.4516 0.609105,-1.09132 1.954214,-1.70042 1.345108,-0.6218 3.248564,-0.6218 2.081111,0 3.540427,0.67256 1.472006,0.67255 1.941525,1.70042 0.482208,1.01517 0.482208,3.46428 z"
           inkscape:connector-curvature="0" />
        <path
           id="path889"
           style="fill:#cccccc;fill-opacity:1;stroke-width:0.13922416"
           d="m 71.096888,224.73958 v 20.54463 h -5.342365 v -20.54463 z"
           inkscape:connector-curvature="0" />
        <path
           id="path891"
           style="fill:#cccccc;fill-opacity:1;stroke-width:0.13922416"
           d="m 85.195149,224.73958 v 20.54463 h -4.6825 l -2.779045,-9.33962 v 9.33962 h -4.466776 v -20.54463 h 4.466776 l 2.99477,9.25079 v -9.25079 z"
           inkscape:connector-curvature="0" />
        <path
           id="path893"
           style="fill:#cccccc;fill-opacity:1;stroke-width:0.13922416"
           d="m 99.585274,232.30264 h -5.342365 v -1.86538 q 0,-1.76387 -0.152277,-2.20801 -0.152276,-0.44414 -0.723313,-0.44414 -0.494898,0 -0.672554,0.38069 -0.177656,0.38069 -0.177656,1.95421 v 9.8599 q 0,1.38318 0.177656,1.82732 0.177656,0.43145 0.710623,0.43145 0.583727,0 0.786762,-0.4949 0.215725,-0.4949 0.215725,-1.92883 v -2.43642 H 93.32925 v -3.12167 h 6.256024 v 11.02735 h -3.362772 l -0.494898,-1.47201 q -0.545657,0.95173 -1.383178,1.43394 -0.82483,0.46952 -1.954214,0.46952 -1.345108,0 -2.525251,-0.64717 -1.167452,-0.65987 -1.776558,-1.62429 -0.609106,-0.96441 -0.761382,-2.01766 -0.152277,-1.06593 -0.152277,-3.18512 v -6.10374 q 0,-2.94401 0.317243,-4.27643 0.317242,-1.33242 1.814627,-2.43643 1.510075,-1.11669 3.895739,-1.11669 2.347595,0 3.895739,0.96442 1.548144,0.96442 2.017663,2.29683 0.469519,1.31973 0.469519,3.84498 z"
           inkscape:connector-curvature="0" />
        <path
           id="path895"
           style="fill:#cccccc;fill-opacity:1;stroke-width:0.13922416"
           d="m 113.92464,224.73958 v 20.54463 h -5.34237 v -8.629 h -1.5989 v 8.629 H 101.641 v -20.54463 h 5.34237 v 7.34734 h 1.5989 v -7.34734 z"
           inkscape:connector-curvature="0" />
      </g>
    </g>
  </g>
</svg>
