<?xml version="1.0" encoding="utf-8"?><svg version="1.1" id="artwork_outlined_" xmlns="http://www.w3.org/2000/svg" xmlns:xlink="http://www.w3.org/1999/xlink" x="0px" y="0px" viewBox="0 0 102.4 30" style="enable-background:new 0 0 102.4 30;" xml:space="preserve"><style type="text/css">.st0{fill:#494949;}.st1{fill:#6FDA44;}</style><title>upwork_use_on_white</title><path class="st0" d="M65.4,6.9c-4.5,0-8.1,3.6-8.1,8.1c0,4.5,3.6,8.1,8.1,8.1c4.5,0,8.1-3.6,8.1-8.1c0,0,0,0,0,0l0,0C73.5,10.5,69.9,6.9,65.4,6.9z M65.4,19.8c-2.6,0-4.8-2.1-4.8-4.8s2.1-4.8,4.8-4.8c2.6,0,4.8,2.1,4.8,4.7l0,0C70.2,17.6,68.1,19.8,65.4,19.8C65.4,19.8,65.4,19.8,65.4,19.8z"/><path class="st0" d="M83.4,10.8c-2.3,0-4.2,1.9-4.2,4.2v7.7h-3.5V7.4h3.5v2.4c1-1.5,2.7-2.4,4.5-2.4h1.1v3.4L83.4,10.8z"/><polygon class="st0" points="48.2,7.4 50.8,18 53.7,7.4 57.1,7.4 52.7,22.7 49.2,22.7 46.5,12 43.8,22.7 40.3,22.7 35.9,7.4 39.3,7.4 42.2,18 44.9,7.4 "/><path class="st0" d="M95,14.4c2.6-1.4,4.1-4.1,4.1-7.1h-3.4c0,2.6-2.1,4.6-4.6,4.6h-0.5V0h-3.5v22.7h3.5v-7.2H91c0.4,0,0.8,0.2,1,0.5l4.9,6.7h4.2L95,14.4z"/><path class="st1" d="M27.6,6.9c-3.8,0-6.7,2.5-7.9,6.5c-1.8-2.7-3.1-5.7-4-8.8h-4.1v10.6c0,2.1-1.7,3.8-3.8,3.8s-3.8-1.7-3.8-3.8V4.7H0v10.6c0,4.3,3.5,7.9,7.9,7.9s7.9-3.5,7.9-7.9v-1.8c0.8,1.7,1.8,3.3,2.9,4.8L16.2,30h4.2l1.8-8.5c1.6,1.1,3.5,1.7,5.5,1.7c4.5,0,8.1-3.6,8.1-8.1C35.7,10.6,32.1,6.9,27.6,6.9L27.6,6.9z M27.6,19.1c-1.7-0.1-3.3-0.7-4.6-1.8l0.3-1.6v-0.1c0.3-1.7,1.3-4.6,4.2-4.6c2.2-0.1,4,1.7,4.1,3.9c0.1,2.2-1.7,4-3.9,4.1L27.6,19.1L27.6,19.1z"/></svg>